<?xml version="1.0" standalone="no"?>
<!DOCTYPE svg PUBLIC "-//W3C//DTD SVG 20010904//EN"
 "http://www.w3.org/TR/2001/REC-SVG-20010904/DTD/svg10.dtd">
<svg version="1.0" xmlns="http://www.w3.org/2000/svg"
 width="700.000000pt" height="700.000000pt" viewBox="0 0 700.000000 700.000000"
 preserveAspectRatio="xMidYMid meet">
<metadata>
Created by potrace 1.14, written by Peter Selinger 2001-2017
</metadata>
<g transform="translate(0.000000,700.000000) scale(0.100000,-0.100000)"
fill="#000000" stroke="none">
<path d="M3249 6995 c-2 -2 -35 -6 -74 -9 -90 -8 -141 -14 -245 -32 -172 -29
-282 -53 -400 -89 -47 -14 -93 -27 -102 -30 -24 -5 -139 -47 -233 -85 -880
-351 -1614 -1089 -1949 -1960 -27 -69 -52 -134 -57 -145 -45 -110 -134 -478
-154 -634 -4 -30 -8 -61 -10 -71 -20 -102 -28 -615 -12 -770 72 -706 341
-1356 786 -1895 76 -92 75 -92 199 -219 374 -384 832 -677 1334 -855 193 -67
436 -129 613 -155 22 -3 51 -8 65 -11 14 -2 50 -7 80 -10 30 -2 87 -8 125 -11
150 -15 574 -8 685 10 14 3 44 7 68 10 23 3 61 9 85 12 163 22 450 96 636 164
408 150 804 384 1116 660 73 65 281 274 347 350 286 329 515 732 667 1173 22
64 40 119 41 122 0 3 0 6 1 8 0 1 2 9 4 17 1 8 14 60 28 115 14 55 33 141 42
190 10 50 19 99 21 110 2 11 6 44 10 73 3 29 7 63 9 75 19 96 26 509 12 687
-9 109 -32 271 -53 380 -8 41 -17 86 -20 100 -11 56 -77 288 -110 383 -206
591 -567 1115 -1059 1533 -82 70 -298 228 -367 269 -9 5 -50 30 -90 54 -90 55
-291 159 -378 196 -36 15 -81 34 -100 43 -109 48 -399 138 -534 166 -169 36
-253 50 -351 61 -33 4 -71 9 -85 12 -28 6 -586 14 -591 8z"/>
</g>
</svg>
