<?xml version="1.0" encoding="utf-8"?>
<!-- Generator: Adobe Illustrator 24.3.0, SVG Export Plug-In . SVG Version: 6.00 Build 0)  -->
<svg version="1.1" id="Layer_1" xmlns="http://www.w3.org/2000/svg" xmlns:xlink="http://www.w3.org/1999/xlink" x="0px" y="0px"
	 viewBox="0 0 256 256" style="enable-background:new 0 0 256 256;" xml:space="preserve">
<style type="text/css">
	.st0{fill:#3D9645;}
	.st1{fill:#FFFFFF;}
</style>
<path class="st0" d="M127.94,5.83C60.62,5.83,5.83,60.62,5.83,127.94s54.78,122.11,122.11,122.11s122.11-54.78,122.11-122.11
	S195.27,5.83,127.94,5.83z M206.88,103.45l-88.58,88.49c-2.73,2.73-6.31,4.18-9.98,4.18c-0.09,0.09-0.17,0.09-0.26,0.09
	c-0.09,0-0.09,0-0.17,0c-3.58-0.09-7.17-1.45-9.98-4.18l-45.99-45.99c-4.44-4.44-6.14-11.43-3.24-17.07
	c4.86-9.3,16.55-10.58,23.3-3.84l36.18,36.18l77.74-77.74c4.78-4.78,12.2-6.4,18.01-2.99c4.86,2.9,7.25,7.77,7.25,12.63
	C211.14,96.88,209.69,100.64,206.88,103.45z"/>
<path class="st0" d="M127.94-0.06c-70.69,0-128,57.31-128,128s57.31,128,128,128s128-57.31,128-128S198.64-0.06,127.94-0.06z
	 M127.94,250.06c-67.33,0-122.11-54.78-122.11-122.11S60.62,5.83,127.94,5.83s122.11,54.78,122.11,122.11
	S195.27,250.06,127.94,250.06z"/>
<path class="st1" d="M203.89,80.58c-5.8-3.41-13.23-1.79-18.01,2.99l-77.74,77.74l-36.18-36.18c-6.74-6.74-18.43-5.46-23.3,3.84
	c-2.9,5.63-1.19,12.63,3.24,17.07l45.99,45.99c2.82,2.73,6.4,4.1,9.98,4.18c0.09,0,0.09,0,0.17,0c0.09,0,0.17,0,0.26-0.09
	c3.67,0,7.25-1.45,9.98-4.18l88.58-88.49c2.82-2.82,4.27-6.57,4.27-10.24C211.14,88.35,208.76,83.49,203.89,80.58z"/>
</svg>
