<svg  x="0px" y="0px" viewBox="0 0 32 32" class="icon copy-icon">
  <path d="M25.51,11H21V6.49C21,4.02,18.98,2,16.51,2H6.59C4.06,2,2,4.06,2,6.59v9.82C2,18.94,4.06,21,6.59,21H11v4.41
    c0,2.54,2.06,4.59,4.59,4.59h9.82c2.54,0,4.59-2.06,4.59-4.59v-9.91C30,13.02,27.98,11,25.51,11z M6.59,18C5.72,18,5,17.28,5,16.41
    V6.59C5,5.72,5.72,5,6.59,5H16h0.46C17.31,5,18,5.69,18,6.54V11h-2.41C13.06,11,11,13.06,11,15.59V18H6.59z M27,25.41
    c0,0.88-0.72,1.59-1.59,1.59h-9.82C14.72,27,14,26.28,14,25.41v-9.82c0-0.88,0.72-1.59,1.59-1.59H25h0.46
    c0.85,0,1.54,0.69,1.54,1.54V25.41z"/>
</svg>
