<?xml version="1.0" encoding="utf-8"?>
<!-- Generator: Adobe Illustrator 24.3.0, SVG Export Plug-In . SVG Version: 6.00 Build 0)  -->
<svg version="1.1" id="Layer_1" xmlns="http://www.w3.org/2000/svg" xmlns:xlink="http://www.w3.org/1999/xlink" x="0px" y="0px"
	 viewBox="0 0 63.92 63.92" style="enable-background:new 0 0 63.92 63.92;" xml:space="preserve">
<path d="M60.65,54.57l-10.3-9.6c-0.12-0.11-0.25-0.19-0.38-0.29c3.37-4.47,5.39-10,5.39-16.01c0-14.72-11.97-26.69-26.69-26.69
	S1.98,13.95,1.98,28.67s11.97,26.69,26.69,26.69c5.65,0,10.89-1.78,15.21-4.79c0.16,0.23,0.36,0.46,0.57,0.66l10.3,9.6
	C55.58,61.61,56.64,62,57.7,62c1.14,0,2.28-0.45,3.13-1.35C62.46,58.92,62.38,56.2,60.65,54.57z M28.67,49.69
	c-11.59,0-21.03-9.43-21.03-21.03S17.07,7.64,28.67,7.64s21.03,9.43,21.03,21.03S40.26,49.69,28.67,49.69z"/>
</svg>
