<svg x="0px" y="0px" viewBox="0 0 32 9" class="icon details-icon">
  <circle class="icon__bg details-icon__bg" cx="4.5" cy="4.5" r="3.5"/>
  <path class="icon__mark details-icon__mark" d="M4.5,9C2.02,9,0,6.98,0,4.5C0,2.02,2.02,0,4.5,0C6.98,0,9,2.02,9,4.5C9,6.98,6.98,9,4.5,9z M4.5,2.52
    c-1.09,0-1.98,0.89-1.98,1.98S3.41,6.48,4.5,6.48S6.48,5.59,6.48,4.5S5.59,2.52,4.5,2.52z"/>
  <circle class="icon__bg details-icon__bg" cx="16" cy="4.5" r="3.5"/>
  <path class="icon__mark details-icon__mark" d="M16,9c-2.48,0-4.5-2.02-4.5-4.5C11.5,2.02,13.52,0,16,0c2.48,0,4.5,2.02,4.5,4.5C20.5,6.98,18.48,9,16,9z
    M16,2.52c-1.09,0-1.98,0.89-1.98,1.98S14.91,6.48,16,6.48c1.09,0,1.98-0.89,1.98-1.98S17.09,2.52,16,2.52z"/>
  <circle class="icon__bg details-icon__bg" cx="27.5" cy="4.5" r="3.5"/>
  <path class="icon__mark details-icon__mark" d="M27.5,9C25.02,9,23,6.98,23,4.5C23,2.02,25.02,0,27.5,0S32,2.02,32,4.5C32,6.98,29.98,9,27.5,9z M27.5,2.52
    c-1.09,0-1.98,0.89-1.98,1.98s0.89,1.98,1.98,1.98s1.98-0.89,1.98-1.98S28.59,2.52,27.5,2.52z"/>
</svg>
