<svg x="0px" y="0px" viewBox="0 0 32 32" class="icon arrow-icon">
  <circle class="icon__bg arrow-icon__bg" cx="16" cy="16" r="15"/>
  <path class="icon__border arrow-icon__border" d="M16,23.61l-8.5-8.5c-0.62-0.62-0.62-1.63,0-2.25c0.62-0.62,1.63-0.62,2.25,0L16,19.11l6.24-6.25c0.62-0.62,1.63-0.62,2.25,0
    c0.62,0.62,0.62,1.63,0,2.25L16,23.61z"/>
  <path class="icon__mark arrow-icon__mark" d="M16,32c-4.1,0-8.2-1.56-11.32-4.68c-6.24-6.24-6.24-16.39,0-22.63C7.7,1.66,11.72,0,16,0s8.3,1.66,11.32,4.69
    c6.24,6.24,6.24,16.39,0,22.63l0,0C24.2,30.44,20.1,32,16,32z M16,1.69c-3.82,0-7.42,1.49-10.12,4.19c-5.58,5.58-5.58,14.66,0,20.24
    s14.66,5.58,20.24,0s5.58-14.66,0-20.24C23.42,3.18,19.82,1.69,16,1.69z"/>
</svg>
