<svg x="0px" y="0px" viewBox="0 0 32 32"  class="icon x-icon">
  <circle class="icon__bg x-icon__bg" cx="16" cy="16" r="15"/>
  <path class="icon__border x-icon__border" d="M16,32c-4.1,0-8.2-1.56-11.32-4.68c-6.24-6.24-6.24-16.39,0-22.63C7.7,1.66,11.72,0,16,0s8.3,1.66,11.32,4.69
    c6.24,6.24,6.24,16.39,0,22.63l0,0C24.2,30.44,20.1,32,16,32z M16,1.69c-3.82,0-7.42,1.49-10.12,4.19c-5.58,5.58-5.58,14.66,0,20.24
    c5.58,5.58,14.66,5.58,20.24,0c5.58-5.58,5.58-14.66,0-20.24C23.42,3.18,19.82,1.69,16,1.69z"/>
  <path class="icon__mark x-icon__mark" d="M18.32,15.93l4.12-4.12c0.62-0.62,0.62-1.63,0-2.25c-0.62-0.62-1.63-0.62-2.25,0l-4.12,4.12l-4.12-4.12
    c-0.62-0.62-1.63-0.62-2.25,0c-0.62,0.62-0.62,1.63,0,2.25l4.12,4.12L9.55,20.2c-0.62,0.62-0.62,1.63,0,2.25
    c0.31,0.31,0.72,0.47,1.12,0.47s0.81-0.16,1.12-0.47l4.27-4.27l4.12,4.12c0.31,0.31,0.72,0.47,1.12,0.47s0.81-0.16,1.12-0.47
    c0.62-0.62,0.62-1.63,0-2.25L18.32,15.93z"/>
</svg>
