<?xml version="1.0" encoding="utf-8"?>
<!-- Generator: Adobe Illustrator 24.3.0, SVG Export Plug-In . SVG Version: 6.00 Build 0)  -->
<svg version="1.1" id="Layer_1" xmlns="http://www.w3.org/2000/svg" xmlns:xlink="http://www.w3.org/1999/xlink" x="0px" y="0px"
	 viewBox="0 0 84 150" style="enable-background:new 0 0 84 150;" xml:space="preserve">
<style type="text/css">
	.st0{fill:#2D2C32;}
	.st1{fill:#3D9645;}
</style>
<g>
	<g>
		<g>
			<path class="st0" d="M58.33,58.38c0.34,0.31,0.79,0.48,1.27,0.48c0.48,0,0.93-0.17,1.27-0.48l7.32-6.72c0.7-0.64,0.7-1.69,0-2.33
				c-0.7-0.64-1.83-0.64-2.54,0l-6.05,5.56l-3.05-2.81c-0.7-0.64-1.83-0.64-2.54,0c-0.7,0.64-0.7,1.69,0,2.33L58.33,58.38z
				 M65.65,104.3l-6.05,5.56l-3.05-2.81c-0.7-0.64-1.83-0.64-2.54,0c-0.7,0.64-0.7,1.69,0,2.33l4.32,3.97
				c0.34,0.31,0.79,0.48,1.27,0.48c0.48,0,0.93-0.17,1.27-0.48l7.32-6.72c0.7-0.64,0.7-1.69,0-2.33
				C67.48,103.66,66.35,103.66,65.65,104.3z M65.65,76.81l-6.05,5.56l-3.05-2.81c-0.7-0.64-1.83-0.64-2.54,0
				c-0.7,0.64-0.7,1.69,0,2.33l4.32,3.97c0.34,0.31,0.79,0.48,1.27,0.48c0.48,0,0.93-0.17,1.27-0.48l7.32-6.72
				c0.7-0.64,0.7-1.69,0-2.33C67.48,76.17,66.35,76.17,65.65,76.81z"/>
		</g>
	</g>
	<path class="st1" d="M39.52,85.22c-0.15-2.53-0.38-5.15-0.6-7.69c-0.93-10.83-1.89-22.02,1.87-32.49
		c2.46-6.83,5.3-13.76,7.66-19.28C43.09,28.89,37.36,33.08,34,37.9c-6.54,9.38-6.26,20.71-8.86,31.54
		c-4.76,19.79-23.96,50.61-23.11,52.02c0,2.04,20.88,4.29,35.64-7.29c0.16-0.13,0.32-0.27,0.48-0.4
		C39.18,106.09,40.26,97.34,39.52,85.22z"/>
	<path class="st1" d="M53.28,19.82c-0.41,1.73-0.15,3.8,0.46,5.6c1.71,3.43,2.36,6.95,2.36,6.95s5.69-2.59,6.04-5.88
		c0.15-3.36-0.52-5.24-0.84-6.59c1.08,0.94,7.79,6.32,13.05,6.87c-4.42-6.79-3.89-10.95-8.19-13.36s-6.72-2.02-6.72-2.02
		S58.99,0.36,58.32,0.15c-2-0.64-4.57,0.96-5.64,2.49c-0.58,0.83,2.18,8.97,2.18,8.97s-7.05,0.38-8.48,5.04
		c-0.83,2.91-5.02,8.61-5.02,8.61S50.99,23.26,53.28,19.82z"/>
	<path class="st1" d="M77.38,44.32c-4.3-11.76-8.66-15.56-12.55-18.26c0,0.18,0,0.35-0.01,0.53l0,0.07l-0.01,0.07
		c-0.48,4.41-6.34,7.29-7.51,7.82l-3.2,1.45l-0.61-3.23c-0.01-0.03-0.63-3.27-2.16-6.34l-0.07-0.14l-0.02-0.07
		c-2.38,5.56-5.31,12.68-7.81,19.61c-4.46,12.4-1.94,26.11-1.14,39.23c1.81,29.61-6.96,38.58-0.58,64.44
		c-0.4,2.37,33.05-3.92,36.95-26.69C82.52,100.27,84.14,62.8,77.38,44.32z M55.14,135.28c-2.9,0-5.25-2.16-5.25-4.83
		c0-2.67,2.35-4.83,5.25-4.83c2.9,0,5.25,2.16,5.25,4.83C60.39,133.12,58.04,135.28,55.14,135.28z M60.9,117.95
		c-6.08,0-11-4.52-11-10.11c0-5.58,4.93-10.11,11-10.11c6.08,0,11,4.52,11,10.11C71.9,113.42,66.98,117.95,60.9,117.95z
		 M61.03,90.65c-6.08,0-11-4.52-11-10.11c0-5.58,4.93-10.11,11-10.11c6.08,0,11,4.52,11,10.11C72.03,86.13,67.11,90.65,61.03,90.65z
		 M61.03,63.36c-6.08,0-11-4.52-11-10.11c0-5.58,4.93-10.11,11-10.11c6.08,0,11,4.52,11,10.11C72.03,58.83,67.11,63.36,61.03,63.36z
		"/>
</g>
</svg>
